<mxfile host="app.diagrams.net" modified="2020-04-09T12:41:06.203Z" agent="5.0 (Macintosh; Intel Mac OS X 10_14_6) AppleWebKit/537.36 (KHTML, like Gecko) Chrome/80.0.3987.163 Safari/537.36" etag="szPUemqaiwN-oGYHgvVn" version="12.9.10" type="github">
  <diagram id="Vj9dtqC6M_GtGAx85Ggo" name="Page-1">
    <mxGraphModel dx="2033" dy="1081" grid="1" gridSize="10" guides="1" tooltips="1" connect="1" arrows="1" fold="1" page="1" pageScale="1" pageWidth="827" pageHeight="1169" math="0" shadow="0">
      <root>
        <mxCell id="0" />
        <mxCell id="1" parent="0" />
        <mxCell id="ZZT-0gAuHllUWZQJKuZm-189" style="edgeStyle=orthogonalEdgeStyle;rounded=0;orthogonalLoop=1;jettySize=auto;html=1;entryX=0.5;entryY=0;entryDx=0;entryDy=0;dashed=1;startArrow=none;startFill=0;endArrow=classic;endFill=1;fillColor=#e51400;strokeColor=#B20000;strokeWidth=2;" parent="1" source="ZZT-0gAuHllUWZQJKuZm-90" target="ZZT-0gAuHllUWZQJKuZm-42" edge="1">
          <mxGeometry relative="1" as="geometry" />
        </mxCell>
        <mxCell id="ZZT-0gAuHllUWZQJKuZm-90" value="" style="rhombus;whiteSpace=wrap;html=1;rounded=1;shadow=0;glass=0;comic=0;strokeWidth=1;fillColor=#dae8fc;strokeColor=#6c8ebf;" parent="1" vertex="1">
          <mxGeometry x="-210" y="85" width="711" height="500" as="geometry" />
        </mxCell>
        <mxCell id="ZZT-0gAuHllUWZQJKuZm-42" value="" style="rounded=1;whiteSpace=wrap;html=1;fillColor=#d5e8d4;strokeColor=#82b366;strokeWidth=1;shadow=0;glass=0;comic=0;" parent="1" vertex="1">
          <mxGeometry x="580" y="390" width="1245" height="460" as="geometry" />
        </mxCell>
        <mxCell id="ZZT-0gAuHllUWZQJKuZm-125" style="edgeStyle=orthogonalEdgeStyle;rounded=0;orthogonalLoop=1;jettySize=auto;html=1;entryX=0.5;entryY=0;entryDx=0;entryDy=0;startArrow=classic;startFill=1;endArrow=none;endFill=0;" parent="1" source="ZZT-0gAuHllUWZQJKuZm-11" target="ZZT-0gAuHllUWZQJKuZm-21" edge="1">
          <mxGeometry relative="1" as="geometry" />
        </mxCell>
        <mxCell id="ZZT-0gAuHllUWZQJKuZm-129" style="edgeStyle=orthogonalEdgeStyle;rounded=0;orthogonalLoop=1;jettySize=auto;html=1;startArrow=classic;startFill=1;endArrow=none;endFill=0;" parent="1" source="ZZT-0gAuHllUWZQJKuZm-11" target="ZZT-0gAuHllUWZQJKuZm-124" edge="1">
          <mxGeometry relative="1" as="geometry" />
        </mxCell>
        <mxCell id="ZZT-0gAuHllUWZQJKuZm-11" value="Android首页" style="rounded=0;whiteSpace=wrap;html=1;fillColor=#e1d5e7;strokeColor=#9673a6;" parent="1" vertex="1">
          <mxGeometry x="769" y="435" width="120" height="60" as="geometry" />
        </mxCell>
        <mxCell id="ZZT-0gAuHllUWZQJKuZm-21" value="父模板A" style="rounded=0;whiteSpace=wrap;html=1;fillColor=#ffe6cc;strokeColor=#d79b00;" parent="1" vertex="1">
          <mxGeometry x="700.5" y="585" width="69" height="80" as="geometry" />
        </mxCell>
        <mxCell id="ZZT-0gAuHllUWZQJKuZm-131" style="edgeStyle=orthogonalEdgeStyle;rounded=0;orthogonalLoop=1;jettySize=auto;html=1;entryX=0.5;entryY=1;entryDx=0;entryDy=0;startArrow=none;startFill=0;endArrow=classic;endFill=1;" parent="1" source="ZZT-0gAuHllUWZQJKuZm-36" target="ZZT-0gAuHllUWZQJKuZm-21" edge="1">
          <mxGeometry relative="1" as="geometry" />
        </mxCell>
        <mxCell id="ZZT-0gAuHllUWZQJKuZm-36" value="模板A-1" style="rounded=0;whiteSpace=wrap;html=1;fillColor=#e6d0de;strokeColor=#996185;gradientColor=#d5739d;" parent="1" vertex="1">
          <mxGeometry x="660" y="710" width="60" height="80" as="geometry" />
        </mxCell>
        <mxCell id="ZZT-0gAuHllUWZQJKuZm-43" value="&lt;b&gt;模板仓库&lt;/b&gt;" style="text;html=1;align=center;verticalAlign=middle;resizable=0;points=[];autosize=1;" parent="1" vertex="1">
          <mxGeometry x="1181" y="400" width="60" height="20" as="geometry" />
        </mxCell>
        <mxCell id="ZZT-0gAuHllUWZQJKuZm-68" style="edgeStyle=orthogonalEdgeStyle;rounded=0;orthogonalLoop=1;jettySize=auto;html=1;entryX=0.5;entryY=0;entryDx=0;entryDy=0;entryPerimeter=0;startArrow=classic;startFill=1;endArrow=classic;endFill=1;" parent="1" edge="1">
          <mxGeometry relative="1" as="geometry">
            <mxPoint x="-51" y="350" as="targetPoint" />
            <Array as="points">
              <mxPoint x="29" y="305" />
              <mxPoint x="-51" y="305" />
            </Array>
            <mxPoint x="29" y="260" as="sourcePoint" />
          </mxGeometry>
        </mxCell>
        <mxCell id="ZZT-0gAuHllUWZQJKuZm-71" style="edgeStyle=orthogonalEdgeStyle;rounded=0;orthogonalLoop=1;jettySize=auto;html=1;entryX=0.5;entryY=1;entryDx=0;entryDy=0;startArrow=classic;startFill=1;endArrow=none;endFill=0;" parent="1" edge="1">
          <mxGeometry relative="1" as="geometry">
            <mxPoint x="29" y="350" as="sourcePoint" />
            <mxPoint x="29" y="260" as="targetPoint" />
          </mxGeometry>
        </mxCell>
        <mxCell id="ZZT-0gAuHllUWZQJKuZm-73" style="edgeStyle=orthogonalEdgeStyle;rounded=0;orthogonalLoop=1;jettySize=auto;html=1;entryX=0.5;entryY=1;entryDx=0;entryDy=0;endArrow=none;endFill=0;startArrow=classic;startFill=1;" parent="1" edge="1">
          <mxGeometry relative="1" as="geometry">
            <mxPoint x="109" y="350" as="sourcePoint" />
            <mxPoint x="29" y="260" as="targetPoint" />
            <Array as="points">
              <mxPoint x="109" y="305" />
              <mxPoint x="29" y="305" />
            </Array>
          </mxGeometry>
        </mxCell>
        <mxCell id="ZZT-0gAuHllUWZQJKuZm-75" style="edgeStyle=orthogonalEdgeStyle;rounded=0;orthogonalLoop=1;jettySize=auto;html=1;entryX=0.5;entryY=0;entryDx=0;entryDy=0;entryPerimeter=0;" parent="1" edge="1">
          <mxGeometry relative="1" as="geometry">
            <mxPoint x="192" y="350" as="targetPoint" />
            <Array as="points">
              <mxPoint x="272" y="305" />
              <mxPoint x="192" y="305" />
            </Array>
            <mxPoint x="272" y="260" as="sourcePoint" />
          </mxGeometry>
        </mxCell>
        <mxCell id="ZZT-0gAuHllUWZQJKuZm-78" style="edgeStyle=orthogonalEdgeStyle;rounded=0;orthogonalLoop=1;jettySize=auto;html=1;entryX=0.5;entryY=1;entryDx=0;entryDy=0;startArrow=classic;startFill=1;endArrow=none;endFill=0;" parent="1" edge="1">
          <mxGeometry relative="1" as="geometry">
            <mxPoint x="272" y="350" as="sourcePoint" />
            <mxPoint x="272" y="260" as="targetPoint" />
          </mxGeometry>
        </mxCell>
        <mxCell id="ZZT-0gAuHllUWZQJKuZm-80" style="edgeStyle=orthogonalEdgeStyle;rounded=0;orthogonalLoop=1;jettySize=auto;html=1;entryX=0.5;entryY=1;entryDx=0;entryDy=0;endArrow=none;endFill=0;startArrow=classic;startFill=1;" parent="1" edge="1">
          <mxGeometry relative="1" as="geometry">
            <mxPoint x="352" y="350" as="sourcePoint" />
            <mxPoint x="272" y="260" as="targetPoint" />
            <Array as="points">
              <mxPoint x="352" y="305" />
              <mxPoint x="272" y="305" />
            </Array>
          </mxGeometry>
        </mxCell>
        <mxCell id="ZZT-0gAuHllUWZQJKuZm-89" value="&lt;b&gt;版本管理&lt;/b&gt;" style="text;html=1;align=center;verticalAlign=middle;resizable=0;points=[];autosize=1;" parent="1" vertex="1">
          <mxGeometry x="107" y="125" width="60" height="20" as="geometry" />
        </mxCell>
        <mxCell id="ZZT-0gAuHllUWZQJKuZm-91" value="Android版本" style="ellipse;whiteSpace=wrap;html=1;rounded=1;shadow=0;glass=0;comic=0;strokeWidth=1;fillColor=#f8cecc;strokeColor=#b85450;" parent="1" vertex="1">
          <mxGeometry x="-29" y="190" width="120" height="80" as="geometry" />
        </mxCell>
        <mxCell id="ZZT-0gAuHllUWZQJKuZm-92" value="IOS版本" style="ellipse;whiteSpace=wrap;html=1;rounded=1;shadow=0;glass=0;comic=0;strokeWidth=1;fillColor=#f8cecc;strokeColor=#b85450;" parent="1" vertex="1">
          <mxGeometry x="212" y="190" width="120" height="80" as="geometry" />
        </mxCell>
        <mxCell id="ZZT-0gAuHllUWZQJKuZm-93" value="2.0.0" style="ellipse;whiteSpace=wrap;html=1;rounded=1;shadow=0;glass=0;comic=0;strokeWidth=1;fillColor=#1ba1e2;strokeColor=#006EAF;fontColor=#ffffff;" parent="1" vertex="1">
          <mxGeometry x="-82" y="350" width="61" height="75" as="geometry" />
        </mxCell>
        <mxCell id="ZZT-0gAuHllUWZQJKuZm-94" value="2.0.1" style="ellipse;whiteSpace=wrap;html=1;rounded=1;shadow=0;glass=0;comic=0;strokeWidth=1;fillColor=#1ba1e2;strokeColor=#006EAF;fontColor=#ffffff;" parent="1" vertex="1">
          <mxGeometry x="-1.5" y="350" width="61" height="75" as="geometry" />
        </mxCell>
        <mxCell id="ZZT-0gAuHllUWZQJKuZm-95" value="2.0.2" style="ellipse;whiteSpace=wrap;html=1;rounded=1;shadow=0;glass=0;comic=0;strokeWidth=1;fillColor=#1ba1e2;strokeColor=#006EAF;fontColor=#ffffff;" parent="1" vertex="1">
          <mxGeometry x="78" y="350" width="61" height="75" as="geometry" />
        </mxCell>
        <mxCell id="ZZT-0gAuHllUWZQJKuZm-96" value="2.0.0" style="ellipse;whiteSpace=wrap;html=1;rounded=1;shadow=0;glass=0;comic=0;strokeWidth=1;fillColor=#1ba1e2;strokeColor=#006EAF;fontColor=#ffffff;" parent="1" vertex="1">
          <mxGeometry x="161" y="350" width="61" height="75" as="geometry" />
        </mxCell>
        <mxCell id="ZZT-0gAuHllUWZQJKuZm-97" value="2.0.1" style="ellipse;whiteSpace=wrap;html=1;rounded=1;shadow=0;glass=0;comic=0;strokeWidth=1;fillColor=#1ba1e2;strokeColor=#006EAF;fontColor=#ffffff;" parent="1" vertex="1">
          <mxGeometry x="241.5" y="350" width="61" height="75" as="geometry" />
        </mxCell>
        <mxCell id="ZZT-0gAuHllUWZQJKuZm-98" value="2.0.2" style="ellipse;whiteSpace=wrap;html=1;rounded=1;shadow=0;glass=0;comic=0;strokeWidth=1;fillColor=#1ba1e2;strokeColor=#006EAF;fontColor=#ffffff;" parent="1" vertex="1">
          <mxGeometry x="321" y="350" width="61" height="75" as="geometry" />
        </mxCell>
        <mxCell id="ZZT-0gAuHllUWZQJKuZm-190" style="edgeStyle=orthogonalEdgeStyle;rounded=0;orthogonalLoop=1;jettySize=auto;html=1;entryX=0.5;entryY=1;entryDx=0;entryDy=0;dashed=1;startArrow=none;startFill=0;endArrow=classic;endFill=1;strokeWidth=2;fillColor=#e51400;strokeColor=#B20000;" parent="1" source="ZZT-0gAuHllUWZQJKuZm-105" target="ZZT-0gAuHllUWZQJKuZm-42" edge="1">
          <mxGeometry relative="1" as="geometry" />
        </mxCell>
        <mxCell id="ZZT-0gAuHllUWZQJKuZm-105" value="" style="rhombus;whiteSpace=wrap;html=1;rounded=1;shadow=0;glass=0;comic=0;strokeWidth=1;fillColor=#bac8d3;strokeColor=#23445d;" parent="1" vertex="1">
          <mxGeometry x="-210" y="630" width="711" height="500" as="geometry" />
        </mxCell>
        <mxCell id="ZZT-0gAuHllUWZQJKuZm-106" style="edgeStyle=orthogonalEdgeStyle;rounded=0;orthogonalLoop=1;jettySize=auto;html=1;entryX=0.5;entryY=0;entryDx=0;entryDy=0;entryPerimeter=0;" parent="1" edge="1">
          <mxGeometry relative="1" as="geometry">
            <mxPoint x="67.5" y="910" as="targetPoint" />
            <Array as="points">
              <mxPoint x="147.5" y="865" />
              <mxPoint x="67.5" y="865" />
            </Array>
            <mxPoint x="147.5" y="820" as="sourcePoint" />
          </mxGeometry>
        </mxCell>
        <mxCell id="ZZT-0gAuHllUWZQJKuZm-107" style="edgeStyle=orthogonalEdgeStyle;rounded=0;orthogonalLoop=1;jettySize=auto;html=1;entryX=0.5;entryY=1;entryDx=0;entryDy=0;startArrow=classic;startFill=1;endArrow=none;endFill=0;" parent="1" edge="1">
          <mxGeometry relative="1" as="geometry">
            <mxPoint x="147.5" y="910" as="sourcePoint" />
            <mxPoint x="147.5" y="820" as="targetPoint" />
          </mxGeometry>
        </mxCell>
        <mxCell id="ZZT-0gAuHllUWZQJKuZm-108" style="edgeStyle=orthogonalEdgeStyle;rounded=0;orthogonalLoop=1;jettySize=auto;html=1;entryX=0.5;entryY=1;entryDx=0;entryDy=0;endArrow=none;endFill=0;startArrow=classic;startFill=1;" parent="1" edge="1">
          <mxGeometry relative="1" as="geometry">
            <mxPoint x="227.5" y="910" as="sourcePoint" />
            <mxPoint x="147.5" y="820" as="targetPoint" />
            <Array as="points">
              <mxPoint x="227.5" y="865" />
              <mxPoint x="147.5" y="865" />
            </Array>
          </mxGeometry>
        </mxCell>
        <mxCell id="ZZT-0gAuHllUWZQJKuZm-112" value="&lt;b&gt;单页code管理&lt;/b&gt;" style="text;html=1;align=center;verticalAlign=middle;resizable=0;points=[];autosize=1;" parent="1" vertex="1">
          <mxGeometry x="102" y="690" width="90" height="20" as="geometry" />
        </mxCell>
        <mxCell id="ZZT-0gAuHllUWZQJKuZm-113" value="H5 - code" style="ellipse;whiteSpace=wrap;html=1;rounded=1;shadow=0;glass=0;comic=0;strokeWidth=1;fillColor=#f8cecc;strokeColor=#b85450;" parent="1" vertex="1">
          <mxGeometry x="89.5" y="750" width="120" height="80" as="geometry" />
        </mxCell>
        <mxCell id="ZZT-0gAuHllUWZQJKuZm-115" value="APP_INDEX" style="ellipse;whiteSpace=wrap;html=1;rounded=1;shadow=0;glass=0;comic=0;strokeWidth=1;fillColor=#1ba1e2;strokeColor=#006EAF;fontColor=#ffffff;" parent="1" vertex="1">
          <mxGeometry x="20" y="910" width="77.5" height="90" as="geometry" />
        </mxCell>
        <mxCell id="ZZT-0gAuHllUWZQJKuZm-122" value="XSG" style="ellipse;whiteSpace=wrap;html=1;rounded=1;shadow=0;glass=0;comic=0;strokeWidth=1;fillColor=#1ba1e2;strokeColor=#006EAF;fontColor=#ffffff;" parent="1" vertex="1">
          <mxGeometry x="106.75" y="910" width="77.5" height="90" as="geometry" />
        </mxCell>
        <mxCell id="ZZT-0gAuHllUWZQJKuZm-123" value="YHH" style="ellipse;whiteSpace=wrap;html=1;rounded=1;shadow=0;glass=0;comic=0;strokeWidth=1;fillColor=#1ba1e2;strokeColor=#006EAF;fontColor=#ffffff;" parent="1" vertex="1">
          <mxGeometry x="192" y="910" width="77.5" height="90" as="geometry" />
        </mxCell>
        <mxCell id="ZZT-0gAuHllUWZQJKuZm-124" value="父模板B" style="rounded=0;whiteSpace=wrap;html=1;fillColor=#ffe6cc;strokeColor=#d79b00;" parent="1" vertex="1">
          <mxGeometry x="880.5" y="585" width="69" height="80" as="geometry" />
        </mxCell>
        <mxCell id="ZZT-0gAuHllUWZQJKuZm-134" style="edgeStyle=orthogonalEdgeStyle;rounded=0;orthogonalLoop=1;jettySize=auto;html=1;entryX=0.5;entryY=1;entryDx=0;entryDy=0;startArrow=none;startFill=0;endArrow=classic;endFill=1;" parent="1" source="ZZT-0gAuHllUWZQJKuZm-132" target="ZZT-0gAuHllUWZQJKuZm-21" edge="1">
          <mxGeometry relative="1" as="geometry" />
        </mxCell>
        <mxCell id="ZZT-0gAuHllUWZQJKuZm-132" value="模板A-2" style="rounded=0;whiteSpace=wrap;html=1;fillColor=#e6d0de;strokeColor=#996185;gradientColor=#d5739d;" parent="1" vertex="1">
          <mxGeometry x="750" y="710" width="60" height="80" as="geometry" />
        </mxCell>
        <mxCell id="ZZT-0gAuHllUWZQJKuZm-143" style="edgeStyle=orthogonalEdgeStyle;rounded=0;orthogonalLoop=1;jettySize=auto;html=1;entryX=0.5;entryY=1;entryDx=0;entryDy=0;startArrow=none;startFill=0;endArrow=classic;endFill=1;" parent="1" source="ZZT-0gAuHllUWZQJKuZm-140" target="ZZT-0gAuHllUWZQJKuZm-124" edge="1">
          <mxGeometry relative="1" as="geometry" />
        </mxCell>
        <mxCell id="ZZT-0gAuHllUWZQJKuZm-140" value="模板B-1" style="rounded=0;whiteSpace=wrap;html=1;fillColor=#e6d0de;strokeColor=#996185;gradientColor=#d5739d;" parent="1" vertex="1">
          <mxGeometry x="840" y="710" width="60" height="80" as="geometry" />
        </mxCell>
        <mxCell id="ZZT-0gAuHllUWZQJKuZm-144" style="edgeStyle=orthogonalEdgeStyle;rounded=0;orthogonalLoop=1;jettySize=auto;html=1;entryX=0.5;entryY=1;entryDx=0;entryDy=0;startArrow=none;startFill=0;endArrow=classic;endFill=1;" parent="1" source="ZZT-0gAuHllUWZQJKuZm-142" target="ZZT-0gAuHllUWZQJKuZm-124" edge="1">
          <mxGeometry relative="1" as="geometry" />
        </mxCell>
        <mxCell id="ZZT-0gAuHllUWZQJKuZm-142" value="模板B-2" style="rounded=0;whiteSpace=wrap;html=1;fillColor=#e6d0de;strokeColor=#996185;gradientColor=#d5739d;" parent="1" vertex="1">
          <mxGeometry x="930" y="710" width="60" height="80" as="geometry" />
        </mxCell>
        <mxCell id="ZZT-0gAuHllUWZQJKuZm-145" style="edgeStyle=orthogonalEdgeStyle;rounded=0;orthogonalLoop=1;jettySize=auto;html=1;entryX=0.5;entryY=0;entryDx=0;entryDy=0;startArrow=classic;startFill=1;endArrow=none;endFill=0;" parent="1" source="ZZT-0gAuHllUWZQJKuZm-147" target="ZZT-0gAuHllUWZQJKuZm-148" edge="1">
          <mxGeometry relative="1" as="geometry" />
        </mxCell>
        <mxCell id="ZZT-0gAuHllUWZQJKuZm-146" style="edgeStyle=orthogonalEdgeStyle;rounded=0;orthogonalLoop=1;jettySize=auto;html=1;startArrow=classic;startFill=1;endArrow=none;endFill=0;" parent="1" source="ZZT-0gAuHllUWZQJKuZm-147" target="ZZT-0gAuHllUWZQJKuZm-151" edge="1">
          <mxGeometry relative="1" as="geometry" />
        </mxCell>
        <mxCell id="ZZT-0gAuHllUWZQJKuZm-147" value="IOS首页" style="rounded=0;whiteSpace=wrap;html=1;fillColor=#e1d5e7;strokeColor=#9673a6;" parent="1" vertex="1">
          <mxGeometry x="1149" y="435" width="120" height="60" as="geometry" />
        </mxCell>
        <mxCell id="ZZT-0gAuHllUWZQJKuZm-148" value="父模板A" style="rounded=0;whiteSpace=wrap;html=1;fillColor=#ffe6cc;strokeColor=#d79b00;" parent="1" vertex="1">
          <mxGeometry x="1080.5" y="585" width="69" height="80" as="geometry" />
        </mxCell>
        <mxCell id="ZZT-0gAuHllUWZQJKuZm-149" style="edgeStyle=orthogonalEdgeStyle;rounded=0;orthogonalLoop=1;jettySize=auto;html=1;entryX=0.5;entryY=1;entryDx=0;entryDy=0;startArrow=none;startFill=0;endArrow=classic;endFill=1;" parent="1" source="ZZT-0gAuHllUWZQJKuZm-150" target="ZZT-0gAuHllUWZQJKuZm-148" edge="1">
          <mxGeometry relative="1" as="geometry" />
        </mxCell>
        <mxCell id="ZZT-0gAuHllUWZQJKuZm-150" value="模板A-1" style="rounded=0;whiteSpace=wrap;html=1;fillColor=#e6d0de;strokeColor=#996185;gradientColor=#d5739d;" parent="1" vertex="1">
          <mxGeometry x="1040" y="710" width="60" height="80" as="geometry" />
        </mxCell>
        <mxCell id="ZZT-0gAuHllUWZQJKuZm-151" value="父模板B" style="rounded=0;whiteSpace=wrap;html=1;fillColor=#ffe6cc;strokeColor=#d79b00;" parent="1" vertex="1">
          <mxGeometry x="1260.5" y="585" width="69" height="80" as="geometry" />
        </mxCell>
        <mxCell id="ZZT-0gAuHllUWZQJKuZm-152" style="edgeStyle=orthogonalEdgeStyle;rounded=0;orthogonalLoop=1;jettySize=auto;html=1;entryX=0.5;entryY=1;entryDx=0;entryDy=0;startArrow=none;startFill=0;endArrow=classic;endFill=1;" parent="1" source="ZZT-0gAuHllUWZQJKuZm-153" target="ZZT-0gAuHllUWZQJKuZm-148" edge="1">
          <mxGeometry relative="1" as="geometry" />
        </mxCell>
        <mxCell id="ZZT-0gAuHllUWZQJKuZm-153" value="模板A-2" style="rounded=0;whiteSpace=wrap;html=1;fillColor=#e6d0de;strokeColor=#996185;gradientColor=#d5739d;" parent="1" vertex="1">
          <mxGeometry x="1130" y="710" width="60" height="80" as="geometry" />
        </mxCell>
        <mxCell id="ZZT-0gAuHllUWZQJKuZm-154" style="edgeStyle=orthogonalEdgeStyle;rounded=0;orthogonalLoop=1;jettySize=auto;html=1;entryX=0.5;entryY=1;entryDx=0;entryDy=0;startArrow=none;startFill=0;endArrow=classic;endFill=1;" parent="1" source="ZZT-0gAuHllUWZQJKuZm-155" target="ZZT-0gAuHllUWZQJKuZm-151" edge="1">
          <mxGeometry relative="1" as="geometry" />
        </mxCell>
        <mxCell id="ZZT-0gAuHllUWZQJKuZm-155" value="模板B-1" style="rounded=0;whiteSpace=wrap;html=1;fillColor=#e6d0de;strokeColor=#996185;gradientColor=#d5739d;" parent="1" vertex="1">
          <mxGeometry x="1220" y="710" width="60" height="80" as="geometry" />
        </mxCell>
        <mxCell id="ZZT-0gAuHllUWZQJKuZm-156" style="edgeStyle=orthogonalEdgeStyle;rounded=0;orthogonalLoop=1;jettySize=auto;html=1;entryX=0.5;entryY=1;entryDx=0;entryDy=0;startArrow=none;startFill=0;endArrow=classic;endFill=1;" parent="1" source="ZZT-0gAuHllUWZQJKuZm-157" target="ZZT-0gAuHllUWZQJKuZm-151" edge="1">
          <mxGeometry relative="1" as="geometry" />
        </mxCell>
        <mxCell id="ZZT-0gAuHllUWZQJKuZm-157" value="模板B-2" style="rounded=0;whiteSpace=wrap;html=1;fillColor=#e6d0de;strokeColor=#996185;gradientColor=#d5739d;" parent="1" vertex="1">
          <mxGeometry x="1310" y="710" width="60" height="80" as="geometry" />
        </mxCell>
        <mxCell id="ZZT-0gAuHllUWZQJKuZm-179" style="edgeStyle=orthogonalEdgeStyle;rounded=0;orthogonalLoop=1;jettySize=auto;html=1;entryX=0.5;entryY=1;entryDx=0;entryDy=0;startArrow=none;startFill=0;endArrow=none;endFill=0;" parent="1" source="ZZT-0gAuHllUWZQJKuZm-180" edge="1">
          <mxGeometry relative="1" as="geometry">
            <mxPoint x="1585" y="515" as="targetPoint" />
            <Array as="points">
              <mxPoint x="1500" y="600" />
              <mxPoint x="1585" y="600" />
            </Array>
          </mxGeometry>
        </mxCell>
        <mxCell id="ZZT-0gAuHllUWZQJKuZm-180" value="模板A" style="rounded=0;whiteSpace=wrap;html=1;fillColor=#e6d0de;strokeColor=#996185;gradientColor=#d5739d;" parent="1" vertex="1">
          <mxGeometry x="1470" y="710" width="60" height="80" as="geometry" />
        </mxCell>
        <mxCell id="ZZT-0gAuHllUWZQJKuZm-181" style="edgeStyle=orthogonalEdgeStyle;rounded=0;orthogonalLoop=1;jettySize=auto;html=1;startArrow=none;startFill=0;endArrow=none;endFill=0;" parent="1" source="ZZT-0gAuHllUWZQJKuZm-182" edge="1">
          <mxGeometry relative="1" as="geometry">
            <mxPoint x="1585" y="500" as="targetPoint" />
            <Array as="points">
              <mxPoint x="1690" y="600" />
              <mxPoint x="1585" y="600" />
            </Array>
          </mxGeometry>
        </mxCell>
        <mxCell id="ZZT-0gAuHllUWZQJKuZm-182" value="模板C" style="rounded=0;whiteSpace=wrap;html=1;fillColor=#e6d0de;strokeColor=#996185;gradientColor=#d5739d;" parent="1" vertex="1">
          <mxGeometry x="1650" y="710" width="60" height="80" as="geometry" />
        </mxCell>
        <mxCell id="ZZT-0gAuHllUWZQJKuZm-184" style="edgeStyle=orthogonalEdgeStyle;rounded=0;orthogonalLoop=1;jettySize=auto;html=1;entryX=0.5;entryY=1;entryDx=0;entryDy=0;startArrow=none;startFill=0;endArrow=classic;endFill=1;" parent="1" source="ZZT-0gAuHllUWZQJKuZm-183" target="ZZT-0gAuHllUWZQJKuZm-188" edge="1">
          <mxGeometry relative="1" as="geometry">
            <mxPoint x="1585" y="515" as="targetPoint" />
          </mxGeometry>
        </mxCell>
        <mxCell id="ZZT-0gAuHllUWZQJKuZm-183" value="模板B" style="rounded=0;whiteSpace=wrap;html=1;fillColor=#e6d0de;strokeColor=#996185;gradientColor=#d5739d;" parent="1" vertex="1">
          <mxGeometry x="1555" y="710" width="60" height="80" as="geometry" />
        </mxCell>
        <mxCell id="ZZT-0gAuHllUWZQJKuZm-188" value="活动页" style="rounded=0;whiteSpace=wrap;html=1;fillColor=#e1d5e7;strokeColor=#9673a6;" parent="1" vertex="1">
          <mxGeometry x="1525" y="435" width="120" height="60" as="geometry" />
        </mxCell>
        <mxCell id="ZZT-0gAuHllUWZQJKuZm-192" value="&lt;font color=&quot;#000000&quot;&gt;&lt;b&gt;版本绑定模板&lt;/b&gt;&lt;/font&gt;" style="rounded=1;whiteSpace=wrap;html=1;shadow=0;glass=0;comic=0;strokeWidth=1;fillColor=#e3c800;strokeColor=#B09500;fontColor=#ffffff;" parent="1" vertex="1">
          <mxGeometry x="860" y="270" width="120" height="60" as="geometry" />
        </mxCell>
        <mxCell id="ZZT-0gAuHllUWZQJKuZm-193" value="&lt;span style=&quot;font-family: monospace ; font-size: 0px&quot;&gt;%3CmxGraphModel%3E%3Croot%3E%3CmxCell%20id%3D%220%22%2F%3E%3CmxCell%20id%3D%221%22%20parent%3D%220%22%2F%3E%3CmxCell%20id%3D%222%22%20value%3D%22%26lt%3Bfont%20color%3D%26quot%3B%23000000%26quot%3B%26gt%3B%26lt%3Bb%26gt%3B%E7%89%88%E6%9C%AC%E7%BB%91%E5%AE%9A%E6%A8%A1%E6%9D%BF%26lt%3B%2Fb%26gt%3B%26lt%3B%2Ffont%26gt%3B%22%20style%3D%22rounded%3D1%3BwhiteSpace%3Dwrap%3Bhtml%3D1%3Bshadow%3D0%3Bglass%3D0%3Bcomic%3D0%3BstrokeWidth%3D1%3BfillColor%3D%23e3c800%3BstrokeColor%3D%23B09500%3BfontColor%3D%23ffffff%3B%22%20vertex%3D%221%22%20parent%3D%221%22%3E%3CmxGeometry%20x%3D%22860%22%20y%3D%22270%22%20width%3D%22120%22%20height%3D%2260%22%20as%3D%22geometry%22%2F%3E%3C%2FmxCell%3E%3C%2Froot%3E%3C%2FmxGraphModel%3E&lt;/span&gt;" style="text;html=1;align=center;verticalAlign=middle;resizable=0;points=[];autosize=1;" parent="1" vertex="1">
          <mxGeometry x="838" y="926" width="20" height="20" as="geometry" />
        </mxCell>
        <mxCell id="ZZT-0gAuHllUWZQJKuZm-225" style="edgeStyle=orthogonalEdgeStyle;rounded=0;orthogonalLoop=1;jettySize=auto;html=1;entryX=0.398;entryY=-0.017;entryDx=0;entryDy=0;entryPerimeter=0;dashed=1;startArrow=none;startFill=0;endArrow=classic;endFill=1;strokeWidth=1;" parent="1" source="ZZT-0gAuHllUWZQJKuZm-194" target="ZZT-0gAuHllUWZQJKuZm-224" edge="1">
          <mxGeometry relative="1" as="geometry" />
        </mxCell>
        <mxCell id="ZZT-0gAuHllUWZQJKuZm-194" value="&lt;font color=&quot;#000000&quot;&gt;&lt;b&gt;code绑定模板&lt;/b&gt;&lt;/font&gt;" style="rounded=1;whiteSpace=wrap;html=1;shadow=0;glass=0;comic=0;strokeWidth=1;fillColor=#e3c800;strokeColor=#B09500;fontColor=#ffffff;" parent="1" vertex="1">
          <mxGeometry x="780" y="890" width="120" height="60" as="geometry" />
        </mxCell>
        <mxCell id="ZZT-0gAuHllUWZQJKuZm-202" style="edgeStyle=orthogonalEdgeStyle;rounded=0;orthogonalLoop=1;jettySize=auto;html=1;entryX=0.25;entryY=0;entryDx=0;entryDy=0;dashed=1;startArrow=none;startFill=0;endArrow=classic;endFill=1;strokeWidth=1;" parent="1" target="ZZT-0gAuHllUWZQJKuZm-192" edge="1">
          <mxGeometry relative="1" as="geometry">
            <mxPoint x="820.5" y="80" as="sourcePoint" />
            <Array as="points">
              <mxPoint x="890" y="80" />
            </Array>
          </mxGeometry>
        </mxCell>
        <mxCell id="ZZT-0gAuHllUWZQJKuZm-205" value="绑" style="text;html=1;align=center;verticalAlign=middle;resizable=0;points=[];autosize=1;fontStyle=1" parent="1" vertex="1">
          <mxGeometry x="889" y="173" width="30" height="20" as="geometry" />
        </mxCell>
        <mxCell id="ZZT-0gAuHllUWZQJKuZm-206" value="次" style="text;html=1;align=center;verticalAlign=middle;resizable=0;points=[];autosize=1;fontStyle=1" parent="1" vertex="1">
          <mxGeometry x="889" y="153" width="30" height="20" as="geometry" />
        </mxCell>
        <mxCell id="ZZT-0gAuHllUWZQJKuZm-207" value="初" style="text;html=1;align=center;verticalAlign=middle;resizable=0;points=[];autosize=1;fontStyle=1" parent="1" vertex="1">
          <mxGeometry x="889" y="133" width="30" height="20" as="geometry" />
        </mxCell>
        <mxCell id="ZZT-0gAuHllUWZQJKuZm-210" value="定" style="text;html=1;align=center;verticalAlign=middle;resizable=0;points=[];autosize=1;fontStyle=1" parent="1" vertex="1">
          <mxGeometry x="889" y="193" width="30" height="20" as="geometry" />
        </mxCell>
        <mxCell id="ZZT-0gAuHllUWZQJKuZm-211" value="&lt;h1&gt;同类型&lt;/h1&gt;&lt;p&gt;比如Android可以绑定模板库中，所有属于Android类型的模板。&lt;/p&gt;" style="text;html=1;strokeColor=#B20000;fillColor=#e51400;spacing=5;spacingTop=-20;whiteSpace=wrap;overflow=hidden;rounded=0;shadow=0;glass=0;comic=0;align=left;fontColor=#ffffff;" parent="1" vertex="1">
          <mxGeometry x="630" y="13" width="190" height="120" as="geometry" />
        </mxCell>
        <mxCell id="ZZT-0gAuHllUWZQJKuZm-217" style="edgeStyle=orthogonalEdgeStyle;rounded=0;orthogonalLoop=1;jettySize=auto;html=1;entryX=0.75;entryY=0;entryDx=0;entryDy=0;dashed=1;startArrow=none;startFill=0;endArrow=classic;endFill=1;strokeWidth=1;" parent="1" source="ZZT-0gAuHllUWZQJKuZm-216" target="ZZT-0gAuHllUWZQJKuZm-192" edge="1">
          <mxGeometry relative="1" as="geometry">
            <Array as="points">
              <mxPoint x="950" y="80" />
            </Array>
          </mxGeometry>
        </mxCell>
        <mxCell id="ZZT-0gAuHllUWZQJKuZm-216" value="&lt;h1&gt;同类型；同父模板&lt;/h1&gt;&lt;p&gt;比如ios 2.0.0版本初次绑定的模板是“模板A-1”，再次修改的时候，只能选择：ios下面属于“父模板A”下面的模板。&lt;/p&gt;" style="text;html=1;strokeColor=#B20000;fillColor=#e51400;spacing=5;spacingTop=-20;whiteSpace=wrap;overflow=hidden;rounded=0;shadow=0;glass=0;comic=0;align=left;fontColor=#ffffff;" parent="1" vertex="1">
          <mxGeometry x="1079" y="13" width="201" height="120" as="geometry" />
        </mxCell>
        <mxCell id="ZZT-0gAuHllUWZQJKuZm-218" value="绑" style="text;html=1;align=center;verticalAlign=middle;resizable=0;points=[];autosize=1;fontStyle=1" parent="1" vertex="1">
          <mxGeometry x="919.5" y="173" width="30" height="20" as="geometry" />
        </mxCell>
        <mxCell id="ZZT-0gAuHllUWZQJKuZm-219" value="改" style="text;html=1;align=center;verticalAlign=middle;resizable=0;points=[];autosize=1;fontStyle=1" parent="1" vertex="1">
          <mxGeometry x="919.5" y="153" width="30" height="20" as="geometry" />
        </mxCell>
        <mxCell id="ZZT-0gAuHllUWZQJKuZm-220" value="修" style="text;html=1;align=center;verticalAlign=middle;resizable=0;points=[];autosize=1;fontStyle=1" parent="1" vertex="1">
          <mxGeometry x="919.5" y="133" width="30" height="20" as="geometry" />
        </mxCell>
        <mxCell id="ZZT-0gAuHllUWZQJKuZm-221" value="定" style="text;html=1;align=center;verticalAlign=middle;resizable=0;points=[];autosize=1;fontStyle=1" parent="1" vertex="1">
          <mxGeometry x="919.5" y="193" width="30" height="20" as="geometry" />
        </mxCell>
        <mxCell id="ZZT-0gAuHllUWZQJKuZm-224" value="&lt;h1&gt;同类型&lt;/h1&gt;&lt;p&gt;活动页没有版本以及父母班限制，任何时候可以绑定模板库中所有的“活动页”模板&lt;/p&gt;" style="text;html=1;strokeColor=#B20000;fillColor=#e51400;spacing=5;spacingTop=-20;whiteSpace=wrap;overflow=hidden;rounded=0;shadow=0;glass=0;comic=0;align=left;fontColor=#ffffff;" parent="1" vertex="1">
          <mxGeometry x="760" y="1070" width="201" height="120" as="geometry" />
        </mxCell>
        <mxCell id="ZZT-0gAuHllUWZQJKuZm-226" value="绑" style="text;html=1;align=center;verticalAlign=middle;resizable=0;points=[];autosize=1;fontStyle=1" parent="1" vertex="1">
          <mxGeometry x="810" y="1010" width="30" height="20" as="geometry" />
        </mxCell>
        <mxCell id="ZZT-0gAuHllUWZQJKuZm-227" value="次" style="text;html=1;align=center;verticalAlign=middle;resizable=0;points=[];autosize=1;fontStyle=1" parent="1" vertex="1">
          <mxGeometry x="810" y="990" width="30" height="20" as="geometry" />
        </mxCell>
        <mxCell id="ZZT-0gAuHllUWZQJKuZm-228" value="初" style="text;html=1;align=center;verticalAlign=middle;resizable=0;points=[];autosize=1;fontStyle=1" parent="1" vertex="1">
          <mxGeometry x="810" y="970" width="30" height="20" as="geometry" />
        </mxCell>
        <mxCell id="ZZT-0gAuHllUWZQJKuZm-229" value="绑" style="text;html=1;align=center;verticalAlign=middle;resizable=0;points=[];autosize=1;fontStyle=1" parent="1" vertex="1">
          <mxGeometry x="840.5" y="1010" width="30" height="20" as="geometry" />
        </mxCell>
        <mxCell id="ZZT-0gAuHllUWZQJKuZm-230" value="改" style="text;html=1;align=center;verticalAlign=middle;resizable=0;points=[];autosize=1;fontStyle=1" parent="1" vertex="1">
          <mxGeometry x="840.5" y="990" width="30" height="20" as="geometry" />
        </mxCell>
        <mxCell id="ZZT-0gAuHllUWZQJKuZm-231" value="修" style="text;html=1;align=center;verticalAlign=middle;resizable=0;points=[];autosize=1;fontStyle=1" parent="1" vertex="1">
          <mxGeometry x="840.5" y="970" width="30" height="20" as="geometry" />
        </mxCell>
        <mxCell id="ZZT-0gAuHllUWZQJKuZm-232" value="定" style="text;html=1;align=center;verticalAlign=middle;resizable=0;points=[];autosize=1;fontStyle=1" parent="1" vertex="1">
          <mxGeometry x="810.5" y="1030" width="30" height="20" as="geometry" />
        </mxCell>
        <mxCell id="ZZT-0gAuHllUWZQJKuZm-233" value="定" style="text;html=1;align=center;verticalAlign=middle;resizable=0;points=[];autosize=1;fontStyle=1" parent="1" vertex="1">
          <mxGeometry x="840.5" y="1030" width="30" height="20" as="geometry" />
        </mxCell>
      </root>
    </mxGraphModel>
  </diagram>
</mxfile>
